<svg width="67" height="24" viewBox="0 0 67 24" fill="none" xmlns="http://www.w3.org/2000/svg">
<path d="M64.7896 22.2936C55.1156 20.7973 43.5877 19.6902 32.3626 19.8785C23.3856 20.0308 14.5983 21.0066 7.12277 23.2604L7.1148 23.2602C6.62781 23.3488 5.55434 23.1341 4.90395 22.8446C4.72364 22.7678 4.5676 22.6758 4.46709 22.5854C4.34323 22.4785 4.28334 22.3576 4.31861 22.2395C4.33711 22.1528 4.41084 22.0756 4.52406 22.0075L4.53223 21.9998L4.54015 22.0001C11.0098 19.6685 22.2059 18.5901 33.5994 18.6133C45.5249 18.6365 57.6764 19.8655 64.8348 22.1123L66.0068 22.4808L64.7896 22.2936Z" fill="white"/>
<path d="M17.1181 0.197171C17.5579 0.0144467 18.0197 -0.0646786 18.4223 0.0615423C18.6354 0.128792 18.7845 0.226734 18.8617 0.347145C18.9468 0.47568 18.9522 0.618661 18.9018 0.776501C18.8596 0.91866 18.7618 1.05979 18.6323 1.20036C18.3006 1.55172 17.7312 1.88293 17.1416 1.99948C16.7194 2.08725 16.3297 2.12796 16.0606 2.08349C15.9182 2.05717 15.8078 2.01552 15.7376 1.94282C15.6597 1.86205 15.622 1.75028 15.6482 1.61578C15.6744 1.48128 15.7488 1.31593 15.9032 1.11228C16.1716 0.751872 16.6302 0.402827 17.1181 0.197171ZM11.8743 6.72431C10.6756 8.07629 9.55137 9.69948 9.16139 10.653C9.49281 10.3176 10.1244 9.61439 10.8533 8.80179C12.3194 7.14498 14.1427 5.042 14.6047 4.50251C13.9111 4.67274 12.8707 5.59891 11.8743 6.72431ZM54.78 15.3127C54.7954 15.3368 54.8269 15.3532 54.8742 15.37C56.1425 15.9163 59.312 15.3376 61.2153 14.5458C61.6711 14.3554 62.0559 14.1479 62.3134 13.9461C62.5549 13.7599 62.693 13.5798 62.68 13.4208C62.6743 13.2937 62.5653 13.1726 62.3373 13.0496C61.8576 12.795 61.1118 12.7738 60.3164 12.8629C59.2029 12.986 57.9981 13.3377 57.2307 13.6416C57.0548 13.7099 55.966 14.2304 55.2906 14.7185C55.0978 14.85 54.9365 14.99 54.8471 15.1075C54.7741 15.1936 54.7489 15.2725 54.78 15.3127ZM57.2158 12.2443C58.3002 11.9698 59.3275 11.7816 60.5841 11.6452C61.2841 11.5624 62.2208 11.5631 63.0123 11.6883C63.6455 11.7947 64.1898 11.987 64.4543 12.2933C64.4931 12.3416 64.5318 12.3979 64.5625 12.454C64.6694 12.694 64.6483 12.9873 64.5157 13.3025C64.3834 13.6018 64.1476 13.9152 63.8093 14.1949C63.5513 14.4206 63.238 14.6293 62.8699 14.7974C61.6372 15.3709 60.4536 15.8658 59.1295 16.2313C57.8053 16.5967 56.3406 16.8327 54.5458 16.8803C53.7277 16.9054 52.7128 16.8398 52.0584 16.5901C51.7903 16.4901 51.5783 16.3593 51.4622 16.1905C51.3304 16.0136 51.3104 15.7989 51.4261 15.539C51.5171 15.3342 51.7119 15.0916 52.0341 14.8274C51.8587 14.8719 51.6912 14.9166 51.5236 14.9692C50.5981 15.2306 49.2309 15.8481 47.4055 15.9365C45.74 16.0172 44.2514 15.7685 42.1024 15.643C41.5869 15.618 41.0954 15.5854 40.667 15.5699C40.2229 15.5462 39.7549 15.522 39.5272 15.383C39.2445 15.2113 39.2574 14.9337 39.8931 14.4449C40.553 13.9406 41.7304 13.3503 43.066 12.7866C44.8815 12.0171 47.7792 11.2461 49.248 10.78C49.4077 10.7272 49.5439 10.6582 49.6086 10.5959C49.6166 10.5881 49.6247 10.5803 49.6247 10.5803C49.6249 10.5723 49.6167 10.5801 49.6088 10.58C49.546 10.5392 49.3958 10.5048 49.1341 10.4922C48.5551 10.4661 47.012 10.4991 46.3206 10.5424C45.7168 10.5714 45.1522 10.6328 44.7855 10.7215C43.8688 10.9355 41.271 11.9451 38.6174 12.9775C36.1796 13.9186 33.7018 14.8828 32.4248 15.2728L32.4169 15.2727C32.345 15.2953 32.2891 15.3181 32.2332 15.333C31.7862 15.4759 31.2993 15.626 31.127 15.4959C31.0016 15.4064 31.0125 15.2399 31.2242 14.942C31.4926 14.5737 31.9144 14.0652 32.3443 13.5489C33.0416 12.7198 33.7472 11.8751 33.7746 11.6692C32.6668 11.4749 29.5263 13.102 26.8425 14.4911C25.0959 15.3968 23.5416 16.2028 22.8407 16.3411L22.8247 16.3488L22.8167 16.3487L22.5628 16.3442L22.539 16.3437L22.5156 16.3195C22.3196 16.1811 22.5998 15.5986 23.0654 14.8608C23.5063 14.17 24.1008 13.3233 24.6214 12.6102C24.7929 12.3433 24.9401 12.0998 25.0307 11.9109C25.0884 11.7929 25.1298 11.6984 25.1389 11.6351C24.964 11.6479 24.6605 11.7536 24.2846 11.9136C23.8287 12.1039 23.2682 12.3797 22.6433 12.702C21.8981 13.0937 21.0479 13.5866 20.1659 14.0869C18.3695 15.1188 16.4287 16.2353 14.9747 16.7572C14.6791 16.8631 14.0082 17.0973 13.531 17.1523C12.9423 17.2213 12.5957 17.0722 13.1882 16.3366C13.2775 16.227 13.8275 15.6494 14.5233 14.9076C15.7207 13.635 17.3792 11.8784 17.9541 11.2377C17.5218 11.4444 16.8162 11.8446 15.9822 12.3219C13.4964 13.7305 9.82402 15.8086 8.28664 15.6622C7.8033 15.6139 7.51404 15.3627 7.50746 14.8387C6.59045 15.521 4.66428 18.0508 3.10392 20.0949C2.90073 20.3612 2.69759 20.6274 2.48618 20.9094L2.47827 20.9093L2.47811 20.9173C2.18721 21.2058 1.34711 21.5798 0.749678 21.6963C0.582326 21.733 0.423356 21.746 0.304487 21.736C0.161916 21.7176 0.0597569 21.6602 0.0139471 21.5562C-0.00857213 21.4843 -0.00702941 21.3971 0.0425335 21.2868L0.0426879 21.2789L0.0507602 21.2711C1.07765 19.7652 2.88305 17.781 4.59117 15.9062C5.51399 14.8986 6.39641 13.93 7.12608 13.0697L7.25574 12.9212C7.39343 12.7649 7.45039 12.6865 7.49913 12.6239C7.53188 12.5689 7.55682 12.5058 7.60623 12.4035C7.63954 12.3168 7.68895 12.2145 7.76294 12.0729C8.6451 10.2232 9.39157 8.86318 10.1975 7.73444C10.6124 7.16231 11.0586 6.62251 11.5517 6.12323C12.5134 5.15599 13.6478 4.30297 15.1893 3.3222C15.2777 3.2603 15.4537 3.18406 15.6372 3.13172C15.7968 3.08694 15.9719 3.0583 16.1227 3.06097C16.2892 3.07187 16.4391 3.12216 16.5162 3.25054C16.5394 3.28267 16.5548 3.3147 16.562 3.35449C16.891 4.49542 12.3403 9.54261 9.87888 12.2692C9.32813 12.8865 8.87476 13.3865 8.61533 13.6915C8.60726 13.6993 8.59918 13.7071 8.59111 13.7149C8.50139 13.8482 8.43384 14.0772 8.41389 14.3071C8.38628 14.5209 8.41451 14.7199 8.5161 14.809C8.52407 14.8091 8.52392 14.8171 8.53183 14.8172C9.26875 15.3383 12.7238 13.431 15.9143 11.6699C18.0387 10.501 20.0428 9.39346 21.0878 9.10246C21.3592 9.01994 21.5423 8.99146 21.6688 9.01752C21.7637 9.03505 21.8264 9.08379 21.8649 9.14796C21.8955 9.21202 21.8941 9.2914 21.8688 9.37824C21.8183 9.53613 21.6798 9.74004 21.4854 9.95886C21.4125 10.037 21.0807 10.3962 20.6115 10.8959C19.4542 12.1454 17.5037 14.254 16.8314 15.0121C17.6395 14.6534 19.4104 13.7163 20.6764 13.0482C21.029 12.8639 21.3495 12.695 21.6299 12.5491C22.303 12.1959 23.0241 11.8198 23.7372 11.4435L24.1299 11.2361C25.1795 10.6832 26.1809 10.1692 27.0135 9.7712C27.8463 9.36523 28.51 9.09125 28.8606 9.01809L28.8764 9.0184L28.8844 9.0185L29.1383 9.02302L29.1621 9.02344L29.1936 9.03988C29.3816 9.17814 29.1014 9.7606 28.6358 10.4985C28.1949 11.1892 27.6005 12.0359 27.0877 12.7491C26.9082 13.0238 26.7611 13.2593 26.6704 13.4482C26.6128 13.5663 26.5713 13.6687 26.5624 13.7242C26.7372 13.7114 27.0406 13.6136 27.4165 13.4536C27.8724 13.2632 28.433 12.9794 29.0579 12.6571L29.0658 12.6573L29.5064 12.4348C30.0268 12.1821 30.5632 11.9297 31.0914 11.6851C32.6682 10.951 34.3322 10.2185 35.627 9.71762C36.9697 9.20163 37.9347 8.94888 38.0726 9.22914L38.0803 9.24518L38.0878 9.26914C38.1001 9.46781 37.4741 10.3061 36.7994 11.199C36.1975 12.0138 35.555 12.8835 35.3249 13.3239C36.3601 13.1359 39.0789 12.0173 41.302 11.0963C42.6854 10.5255 43.8849 10.0308 44.3636 9.88847C45.2572 9.63444 46.5521 9.57804 47.9406 9.61063C49.3291 9.65115 51.6002 9.74215 52.8604 9.85182L52.8684 9.85197C53.2014 9.87377 53.7645 9.89963 53.8879 10.1002C53.9726 10.2526 53.874 10.4413 53.4327 10.7034C52.1279 11.4605 49.879 11.8798 48.5125 12.2799C46.8368 12.7662 45.1132 13.2754 43.7085 14.1554C43.5319 14.2634 43.4594 14.3256 43.4669 14.3495C43.4743 14.3814 43.5818 14.3847 43.7591 14.4341C44.4579 14.6288 46.1984 15.023 47.3967 14.9905C48.4183 14.9628 49.6376 14.7617 50.6985 14.471C51.7675 14.1724 52.466 13.7476 53.5122 13.393C54.9895 12.8954 56.1312 12.5267 57.2158 12.2443Z" fill="white"/>
</svg>
